<?xml version="1.0" encoding="UTF-8"?><svg fill="#FFFFFF" id="Ebene_1" xmlns="http://www.w3.org/2000/svg" viewBox="0 0 374 140"><path d="m133.99,117.23c0,2.33-.76,4.26-2.28,5.79-.74.75-1.64,1.33-2.7,1.74-1.13.45-2.46.66-3.97.63l-3.64-.06c-.99-.01-1.81,0-2.45.06l-.1-.1v-.29l.05-.12c.51-.32.78-.53.82-.61.06-.12.1-.58.11-1.37l.03-2.31v-5.23c0-1.64-.04-2.7-.13-3.2-.03-.2-.15-.33-.35-.38-.1-.03-.5-.06-1.21-.1l-.1-.1v-.7l.1-.09c.73.04,1.42.06,2.08.06,1.6,0,3.04-.02,4.33-.06.64-.02,1.28-.03,1.93-.03,1.79,0,3.16.2,4.11.61,1.04.45,1.86,1.15,2.45,2.1.6.98.91,2.24.91,3.76Zm-3.16.5c0-1.9-.46-3.37-1.38-4.39-.48-.54-1.08-.91-1.8-1.13-.69-.21-1.65-.31-2.88-.31-.64,0-1.25.04-1.83.13-.07.77-.1,2.63-.1,5.59l.02,4.5c0,1,.03,1.67.08,2,.6.1,1.22.14,1.86.14,1.37,0,2.45-.2,3.24-.6.85-.43,1.53-1.17,2.03-2.21.52-1.07.77-2.32.77-3.73Z"/><path d="m141.4,125.3l-.1.1c-.65-.05-1.59-.07-2.82-.07s-2.17.02-2.81.07l-.1-.1v-.63l.1-.1c.66-.02,1.07-.07,1.23-.15.14-.06.21-.23.23-.5.05-.89.07-1.85.07-2.88v-1.47c0-1.33-.05-2.12-.15-2.37-.06-.14-.2-.22-.44-.26-.08-.01-.38-.03-.9-.05l-.1-.1v-.58l.1-.11c1.32-.12,2.65-.4,3.99-.86l.22.13c-.09,1.25-.13,2.31-.13,3.17v3.29c0,.5.02,1.2.07,2.09.01.27.09.43.23.5.16.08.57.13,1.23.15l.11.1v.63Zm-1.42-13.45c0,.44-.15.82-.46,1.13-.31.31-.68.47-1.11.47s-.81-.16-1.12-.47c-.31-.31-.46-.69-.46-1.13s.16-.83.47-1.14c.31-.31.69-.46,1.12-.46s.8.15,1.11.46c.31.31.47.69.47,1.14Z"/><path d="m153.5,126.04c0,1.51-.56,2.71-1.69,3.6-1.12.89-2.59,1.34-4.41,1.34-1.42,0-2.55-.27-3.38-.8-.83-.53-1.24-1.25-1.24-2.15,0-.61.13-1.06.4-1.37.03-.04.39-.26,1.09-.68.34-.2.58-.34.74-.42-.95-.17-1.42-.62-1.42-1.37,0-.4.14-.8.41-1.22.02-.03.21-.17.56-.41.17-.12.46-.33.88-.63-1.48-.54-2.23-1.53-2.23-2.98,0-1.12.42-2.02,1.26-2.71s1.96-1.03,3.35-1.03,2.4.3,3.16.9c.43.02.71.03.83.02.34-.01.85-.03,1.53-.05l.12.11-.11,1.06-.11.1h-1.53c.09.33.13.67.13,1.01,0,1.64-.79,2.75-2.38,3.35-.71.27-1.42.4-2.11.4-.23,0-.54-.02-.91-.05-.43.23-.65.54-.65.92,0,.35.25.55.75.6.29.03.77.04,1.44.04.21,0,.58,0,1.11-.03.53-.02.92-.03,1.17-.03,1.55,0,2.52.34,2.9,1.03.21.37.31.85.31,1.44Zm-2.36,1.18c0-.75-.26-1.22-.78-1.41-.22-.08-.66-.13-1.32-.13l-1.96-.02c-.22,0-.52,0-.91.02-.94.58-1.41,1.25-1.41,2.01,0,.69.28,1.24.83,1.63s1.3.59,2.24.59c1,0,1.81-.24,2.41-.73.6-.48.9-1.14.9-1.96Zm-1.88-8.38c0-1.73-.58-2.6-1.74-2.6s-1.71.75-1.71,2.25c0,1.77.59,2.66,1.78,2.66,1.11,0,1.67-.77,1.67-2.31Z"/><path d="m160.16,125.3l-.1.1c-.65-.05-1.59-.07-2.82-.07s-2.17.02-2.81.07l-.1-.1v-.63l.1-.1c.66-.02,1.07-.07,1.23-.15.14-.06.21-.23.23-.5.05-.89.07-1.85.07-2.88v-1.47c0-1.33-.05-2.12-.15-2.37-.06-.14-.2-.22-.44-.26-.08-.01-.38-.03-.9-.05l-.1-.1v-.58l.1-.11c1.32-.12,2.65-.4,3.99-.86l.22.13c-.09,1.25-.13,2.31-.13,3.17v3.29c0,.5.02,1.2.07,2.09.01.27.09.43.23.5.16.08.57.13,1.23.15l.11.1v.63Zm-1.42-13.45c0,.44-.15.82-.46,1.13-.31.31-.68.47-1.11.47s-.81-.16-1.12-.47c-.31-.31-.46-.69-.46-1.13s.16-.83.47-1.14c.31-.31.69-.46,1.12-.46s.8.15,1.11.46c.31.31.47.69.47,1.14Z"/><path d="m167.61,123.98c-.05.06-.2.2-.44.43-.41.38-.75.74-1.04,1.05-.34.11-.68.17-1.02.17-.96,0-1.65-.28-2.09-.83-.19-.24-.31-.52-.37-.83-.07-.38-.1-.87-.09-1.48l.03-2.46v-2.58h-.28l-.55.02h-.42l-.11-.09v-.27l.08-.16c.12-.08.32-.21.58-.37.31-.19.54-.35.7-.48v-1.4c0-.58-.03-1.2-.08-1.86.52-.16.93-.31,1.25-.44.32-.13.77-.33,1.36-.62l.27.21c-.08.85-.14,1.62-.18,2.29l-.09,1.78h.34c.75,0,1.4-.02,1.94-.07l.11.11-.14,1.21-.1.1h-2.14v3.49c0,1.12.01,1.78.04,1.98.03.29.16.52.37.7.21.18.49.27.85.27.28,0,.62-.08,1.02-.23l.23.37Z"/><path d="m177.85,125.27l-.11.11c-.58-.04-1.24-.05-1.99-.05-.58,0-1.14.02-1.68.05l-.09-.11.09-1.38-2,1.53c-.16.12-.39.19-.68.22-.12.01-.25.02-.41.02-.76,0-1.35-.23-1.76-.69s-.61-1.1-.61-1.91c0-1.07.34-1.83,1.02-2.28.74-.49,2.22-.93,4.44-1.32,0-1.09-.29-1.82-.87-2.2-.35-.23-.77-.34-1.26-.34-.54,0-.96.11-1.27.33l-.39.96-.13.07-.53-.12-.07-.14.05-1.22c1.13-.84,1.99-1.31,2.56-1.42.24-.05.55-.07.94-.07,1.35,0,2.32.35,2.9,1.06.42.52.63,1.31.63,2.37,0,.26-.01.68-.03,1.26-.03.96-.05,1.6-.05,1.93,0,1.04.02,1.7.05,1.98.03.29.11.47.24.54.13.08.43.12.91.13l.1.11v.58Zm-3.78-2.4v-2.54c-1.13.25-1.9.51-2.29.8-.4.29-.59.72-.59,1.3,0,.93.41,1.4,1.23,1.4.69,0,1.25-.32,1.66-.97Z"/><path d="m184.78,125.3l-.1.1c-.65-.05-1.59-.07-2.82-.07s-2.17.02-2.81.07l-.1-.1v-.63l.1-.1c.66-.02,1.07-.07,1.23-.15.14-.06.21-.23.23-.5.05-.89.07-2.46.07-4.69v-3.45c0-1.44-.02-2.61-.07-3.5-.01-.25-.09-.42-.23-.5-.14-.08-.54-.13-1.2-.15l-.1-.11v-.57l.1-.11c1.33-.14,2.66-.43,3.99-.86l.22.12c0,.19-.01.53-.03,1.02-.07,1.64-.1,3.46-.1,5.45v2.66c0,2.23.02,3.8.07,4.69.01.27.09.43.23.5.16.08.57.13,1.23.15l.11.1v.63Z"/><path d="m202.44,120.57c0,1.13-.32,2.13-.97,3-.56.76-1.3,1.33-2.22,1.7-.84.34-1.84.51-3,.51-1.44,0-2.86-.33-4.25-.99l-.12-.23c.19-.79.29-1.91.29-3.37l.1-.1h.66l.09.1v.24c0,.38.04.89.12,1.53.25.44.69.82,1.33,1.13.67.33,1.36.5,2.08.5,1.36,0,2.3-.47,2.83-1.42.27-.49.4-.99.4-1.52,0-.88-.37-1.51-1.1-1.89-.36-.19-.95-.34-1.76-.46-1.83-.28-3.04-.64-3.62-1.06-.87-.65-1.31-1.65-1.31-3s.47-2.53,1.42-3.37c1-.88,2.4-1.32,4.18-1.32,1.61,0,2.91.26,3.9.77l.07.25c-.16.82-.26,1.8-.3,2.95l-.11.1h-.65l-.1-.1c-.02-.83-.06-1.36-.1-1.61-.21-.32-.58-.6-1.11-.83-.56-.23-1.15-.35-1.76-.35-.92,0-1.65.24-2.19.73-.5.46-.75,1.05-.75,1.78,0,.79.29,1.37.86,1.74.37.24,1.25.47,2.63.69.14.02.55.09,1.21.21.41.07.78.17,1.12.3.69.26,1.22.66,1.57,1.2.38.58.57,1.31.57,2.19Z"/><path d="m214.44,120.22c0,2.43-.82,4.08-2.45,4.94-.8.42-1.71.63-2.73.63-1.58,0-2.79-.46-3.61-1.37s-1.24-2.22-1.24-3.93c0-2.36.8-3.93,2.41-4.71.79-.38,1.71-.58,2.75-.58,2.19,0,3.65.76,4.36,2.28.34.73.52,1.64.52,2.74Zm-2.86.85c0-1.71-.19-2.94-.56-3.67-.37-.74-.95-1.11-1.72-1.11-1.37,0-2.05,1.23-2.05,3.7,0,3.17.77,4.75,2.3,4.75.96,0,1.56-.53,1.83-1.58.14-.55.21-1.25.21-2.09Z"/><path d="m224.16,124.03l-.45,1.02c-.93.49-1.86.73-2.76.73-1.53,0-2.7-.44-3.51-1.32-.81-.88-1.22-2.09-1.22-3.62,0-1.42.31-2.49.94-3.23.17-.21.5-.48.98-.81.99-.7,1.65-1.12,1.99-1.26.33-.14.84-.21,1.53-.21.93,0,1.71.14,2.32.42l.1.19c0,.09-.06.41-.14.96l-.11.7c-.02.12-.05.58-.09,1.38l-.1.1h-.62l-.1-.1c-.04-.61-.09-1.04-.14-1.28-.3-.54-.88-.8-1.74-.8-1.46,0-2.19.94-2.19,2.83,0,1.37.29,2.46.88,3.25.6.82,1.44,1.23,2.53,1.23.66,0,1.24-.14,1.74-.42l.2.24Z"/><path d="m231.09,125.3l-.1.1c-.65-.05-1.59-.07-2.82-.07s-2.17.02-2.81.07l-.1-.1v-.63l.1-.1c.66-.02,1.07-.07,1.23-.15.14-.06.21-.23.23-.5.05-.89.07-1.85.07-2.88v-1.47c0-1.33-.05-2.12-.15-2.37-.06-.14-.2-.22-.44-.26-.08-.01-.38-.03-.9-.05l-.1-.1v-.58l.1-.11c1.32-.12,2.65-.4,3.99-.86l.22.13c-.09,1.25-.13,2.31-.13,3.17v3.29c0,.5.02,1.2.07,2.09.01.27.09.43.23.5.16.08.57.13,1.23.15l.11.1v.63Zm-1.42-13.45c0,.44-.16.82-.46,1.13-.31.31-.68.47-1.11.47s-.81-.16-1.12-.47c-.31-.31-.46-.69-.46-1.13s.16-.83.47-1.14c.31-.31.69-.46,1.12-.46s.79.15,1.11.46c.31.31.47.69.47,1.14Z"/><path d="m241.5,119.55c0,.12,0,.29,0,.53l-.11.14c-.91.25-2.11.37-3.61.37-.27,0-.67,0-1.22.02s-.95.02-1.23.02c.04,1.01.35,1.84.94,2.5.61.71,1.41,1.06,2.39,1.06.66,0,1.44-.23,2.35-.68l.25.3-.45,1.02c-1,.64-2.09.96-3.27.96-1.55,0-2.75-.44-3.6-1.31-.86-.87-1.28-2.12-1.28-3.73,0-1.92.46-3.23,1.37-3.94,1.26-.98,2.46-1.46,3.6-1.46,1.23,0,2.18.35,2.86,1.06.69.73,1.03,1.78,1.03,3.14Zm-2.69-.27c0-1.86-.58-2.78-1.73-2.78-1.22,0-1.83.92-1.83,2.76v.23c.4.06,1.11.09,2.12.09.53,0,1-.03,1.42-.09,0-.1,0-.17,0-.21Z"/><path d="m249.1,123.98c-.05.06-.2.2-.44.43-.41.38-.75.74-1.04,1.05-.34.11-.68.17-1.02.17-.96,0-1.65-.28-2.09-.83-.19-.24-.31-.52-.37-.83-.07-.38-.1-.87-.09-1.48l.03-2.46v-2.58h-.28l-.55.02h-.42l-.11-.09v-.27l.08-.16c.12-.08.32-.21.58-.37.31-.19.54-.35.7-.48v-1.4c0-.58-.03-1.2-.08-1.86.51-.16.93-.31,1.25-.44s.77-.33,1.36-.62l.27.21c-.08.85-.14,1.62-.18,2.29l-.09,1.78h.34c.75,0,1.39-.02,1.94-.07l.11.11-.14,1.21-.1.1h-2.14v3.49c0,1.12.01,1.78.04,1.98.04.29.16.52.37.7s.49.27.85.27c.28,0,.62-.08,1.02-.23l.23.37Z"/><path d="m260.78,116.33l-.09.09c-.45,0-.76.13-.93.39-.09.15-.33.66-.73,1.51-.9,1.96-1.65,3.67-2.24,5.13l-1.66,4.1c-.51,1.27-1.07,2.17-1.66,2.71-.56.5-1.24.75-2.04.75-.51,0-1-.12-1.47-.36.12-.49.24-1.17.36-2.05l.27-.05c.36.51.84.76,1.45.76.72,0,1.38-.71,1.99-2.11l.42-.99-3.34-8.68c-.19-.5-.37-.81-.53-.93-.16-.12-.48-.18-.95-.19l-.1-.1v-.62l.11-.1c.44.02,1.28.03,2.53.03,1.16,0,2.09-.01,2.81-.03l.1.1v.62l-.1.1c-.78,0-1.17.14-1.17.42,0,.12.03.28.1.45.11.32.28.79.5,1.41l1.51,3.98.91-2.18c.89-2.12,1.33-3.36,1.33-3.72,0-.25-.4-.37-1.2-.37l-.1-.1v-.62l.11-.1c.4.02,1.07.03,2.02.03.54,0,1.1-.01,1.68-.03l.11.1v.63Z"/><path d="m273.67,125.29l-.09.1c-.69-.04-1.75-.06-3.19-.06s-2.49.02-3.17.06l-.09-.1v-.69l.1-.1c.7-.04,1.1-.08,1.21-.1.2-.05.32-.18.35-.38.09-.5.13-1.56.13-3.2v-5.45c0-1.64-.04-2.7-.13-3.2-.04-.2-.15-.33-.35-.38-.1-.03-.51-.06-1.21-.1l-.1-.1v-.7l.1-.09c.66.04,1.72.06,3.17.06s2.5-.02,3.17-.06l.1.09v.7l-.1.1c-.7.04-1.1.08-1.21.1-.2.06-.32.18-.35.38-.09.5-.13,1.56-.13,3.2v5.45c0,1.64.04,2.7.13,3.2.03.2.15.33.35.38.1.03.5.06,1.21.1l.1.1v.69Z"/><path d="m286.96,125.29l-.1.11c-.76-.05-1.39-.07-1.92-.07-.48,0-1.18.02-2.1.07l-.1-.1c.12-1.53.19-2.71.19-3.55v-2.02c0-1.68-.61-2.52-1.81-2.52-.63,0-1.13.22-1.48.65-.3.36-.45.73-.45,1.1v1.93c0,1.78.04,2.87.13,3.28.05.24.45.37,1.2.38l.1.1v.63l-.1.1c-.58-.04-1.46-.06-2.62-.06-1.23,0-2.17.02-2.81.07l-.1-.1v-.63l.1-.1c.66-.02,1.07-.07,1.23-.15.14-.06.21-.23.23-.5.05-.89.07-1.85.07-2.88v-1.47c0-1.37-.05-2.17-.15-2.37-.07-.14-.22-.22-.44-.26-.08-.01-.38-.03-.9-.05l-.1-.1v-.58l.1-.11c1.24-.12,2.54-.4,3.91-.86l.23.13-.02,1.73,1.77-1.48c.45-.19.95-.28,1.5-.28,1.09,0,1.91.33,2.45.99.44.54.66,1.32.66,2.36,0,.12-.01.59-.04,1.43-.03.84-.04,1.44-.04,1.79,0,1.04.02,1.7.05,1.98s.11.47.24.54c.12.08.48.12,1.07.13l.09.1v.61Z"/><path d="m293.84,125.3l-.1.1c-.65-.05-1.59-.07-2.82-.07s-2.17.02-2.81.07l-.1-.1v-.63l.1-.1c.66-.02,1.07-.07,1.23-.15.14-.06.21-.23.23-.5.05-.89.07-1.85.07-2.88v-1.47c0-1.33-.05-2.12-.15-2.37-.06-.14-.2-.22-.44-.26-.08-.01-.38-.03-.9-.05l-.1-.1v-.58l.1-.11c1.32-.12,2.65-.4,3.99-.86l.22.13c-.09,1.25-.13,2.31-.13,3.17v3.29c0,.5.02,1.2.07,2.09.01.27.09.43.23.5.16.08.57.13,1.23.15l.11.1v.63Zm-1.42-13.45c0,.44-.16.82-.46,1.13-.31.31-.68.47-1.11.47s-.81-.16-1.12-.47c-.31-.31-.46-.69-.46-1.13s.16-.83.47-1.14c.31-.31.69-.46,1.12-.46s.79.15,1.11.46c.31.31.47.69.47,1.14Z"/><path d="m301.3,123.98c-.05.06-.2.2-.44.43-.41.38-.75.74-1.04,1.05-.34.11-.68.17-1.02.17-.96,0-1.65-.28-2.09-.83-.19-.24-.31-.52-.37-.83-.07-.38-.1-.87-.09-1.48l.03-2.46v-2.58h-.28l-.55.02h-.42l-.11-.09v-.27l.08-.16c.12-.08.32-.21.58-.37.31-.19.54-.35.7-.48v-1.4c0-.58-.03-1.2-.08-1.86.51-.16.93-.31,1.25-.44s.77-.33,1.36-.62l.27.21c-.08.85-.14,1.62-.18,2.29l-.09,1.78h.34c.75,0,1.39-.02,1.94-.07l.11.11-.14,1.21-.1.1h-2.14v3.49c0,1.12.01,1.78.04,1.98.04.29.16.52.37.7s.49.27.85.27c.28,0,.62-.08,1.02-.23l.23.37Z"/><path d="m307.9,125.3l-.1.1c-.65-.05-1.59-.07-2.82-.07s-2.17.02-2.81.07l-.1-.1v-.63l.1-.1c.66-.02,1.07-.07,1.23-.15.14-.06.21-.23.23-.5.05-.89.07-1.85.07-2.88v-1.47c0-1.33-.05-2.12-.15-2.37-.06-.14-.2-.22-.44-.26-.08-.01-.38-.03-.9-.05l-.1-.1v-.58l.1-.11c1.32-.12,2.65-.4,3.99-.86l.22.13c-.09,1.25-.13,2.31-.13,3.17v3.29c0,.5.02,1.2.07,2.09.01.27.09.43.23.5.16.08.57.13,1.23.15l.11.1v.63Zm-1.42-13.45c0,.44-.16.82-.46,1.13-.31.31-.68.47-1.11.47s-.81-.16-1.12-.47c-.31-.31-.46-.69-.46-1.13s.16-.83.47-1.14c.31-.31.69-.46,1.12-.46s.79.15,1.11.46c.31.31.47.69.47,1.14Z"/><path d="m318.56,125.27l-.11.11c-.58-.04-1.24-.05-1.99-.05-.58,0-1.14.02-1.68.05l-.09-.11.09-1.38-2,1.53c-.16.12-.38.19-.68.22-.12.01-.25.02-.41.02-.76,0-1.35-.23-1.76-.69-.41-.46-.61-1.1-.61-1.91,0-1.07.34-1.83,1.02-2.28.73-.49,2.22-.93,4.44-1.32,0-1.09-.29-1.82-.87-2.2-.35-.23-.77-.34-1.26-.34-.54,0-.96.11-1.27.33l-.39.96-.13.07-.53-.12-.07-.14.05-1.22c1.13-.84,1.99-1.31,2.56-1.42.24-.05.55-.07.94-.07,1.35,0,2.32.35,2.9,1.06.42.52.63,1.31.63,2.37,0,.26,0,.68-.03,1.26-.03.96-.05,1.6-.05,1.93,0,1.04.02,1.7.05,1.98.04.29.12.47.24.54.13.08.43.12.91.13l.1.11v.58Zm-3.78-2.4v-2.54c-1.13.25-1.9.51-2.29.8-.39.29-.59.72-.59,1.3,0,.93.41,1.4,1.23,1.4.69,0,1.25-.32,1.66-.97Z"/><path d="m325.91,123.98c-.05.06-.2.2-.44.43-.41.38-.75.74-1.04,1.05-.34.11-.68.17-1.02.17-.96,0-1.65-.28-2.09-.83-.19-.24-.31-.52-.37-.83-.07-.38-.1-.87-.09-1.48l.03-2.46v-2.58h-.28l-.55.02h-.42l-.11-.09v-.27l.08-.16c.12-.08.32-.21.58-.37.31-.19.54-.35.7-.48v-1.4c0-.58-.03-1.2-.08-1.86.51-.16.93-.31,1.25-.44s.77-.33,1.36-.62l.27.21c-.08.85-.14,1.62-.18,2.29l-.09,1.78h.34c.75,0,1.39-.02,1.94-.07l.11.11-.14,1.21-.1.1h-2.14v3.49c0,1.12.01,1.78.04,1.98.04.29.16.52.37.7s.49.27.85.27c.28,0,.62-.08,1.02-.23l.23.37Z"/><path d="m332.52,125.3l-.1.1c-.65-.05-1.59-.07-2.82-.07s-2.17.02-2.81.07l-.1-.1v-.63l.1-.1c.66-.02,1.07-.07,1.23-.15.14-.06.21-.23.23-.5.05-.89.07-1.85.07-2.88v-1.47c0-1.33-.05-2.12-.15-2.37-.06-.14-.2-.22-.44-.26-.08-.01-.38-.03-.9-.05l-.1-.1v-.58l.1-.11c1.32-.12,2.65-.4,3.99-.86l.22.13c-.09,1.25-.13,2.31-.13,3.17v3.29c0,.5.02,1.2.07,2.09.01.27.09.43.23.5.16.08.57.13,1.23.15l.11.1v.63Zm-1.42-13.45c0,.44-.16.82-.46,1.13-.31.31-.68.47-1.11.47s-.81-.16-1.12-.47c-.31-.31-.46-.69-.46-1.13s.16-.83.47-1.14c.31-.31.69-.46,1.12-.46s.79.15,1.11.46c.31.31.47.69.47,1.14Z"/><path d="m344.63,116.33l-.1.11c-.42.03-.69.08-.82.15-.1.05-.21.21-.35.45-.14.25-.4.8-.77,1.67l-1.97,4.57c-.07.17-.36.9-.89,2.22h-1.8c-.39-1.08-.8-2.2-1.26-3.33-.72-1.81-1.34-3.36-1.85-4.66-.23-.58-.47-.91-.73-1.01-.15-.05-.35-.09-.61-.09l-.11-.11v-.6l.11-.1c.63.02,1.55.03,2.75.03,1.06,0,1.89-.01,2.49-.03l.11.1v.61l-.11.11c-.51.01-.84.04-.99.09-.15.05-.23.14-.23.28,0,.19.42,1.4,1.27,3.63.45,1.19.74,1.93.88,2.24.44-1.03.86-2.04,1.26-3.03.65-1.61.98-2.56.98-2.83,0-.14-.07-.24-.21-.28-.14-.04-.48-.08-1.02-.1l-.11-.1v-.61l.11-.1c.53.02,1.15.03,1.88.03.78,0,1.44-.01,2-.03l.1.1v.63Z"/><path d="m354.65,119.55c0,.12,0,.29,0,.53l-.11.14c-.91.25-2.11.37-3.61.37-.27,0-.67,0-1.22.02s-.95.02-1.23.02c.04,1.01.35,1.84.94,2.5.61.71,1.41,1.06,2.39,1.06.66,0,1.44-.23,2.35-.68l.25.3-.45,1.02c-1,.64-2.09.96-3.27.96-1.55,0-2.75-.44-3.6-1.31-.86-.87-1.28-2.12-1.28-3.73,0-1.92.46-3.23,1.37-3.94,1.26-.98,2.46-1.46,3.6-1.46,1.23,0,2.18.35,2.86,1.06.69.73,1.03,1.78,1.03,3.14Zm-2.69-.27c0-1.86-.58-2.78-1.73-2.78-1.22,0-1.83.92-1.83,2.76v.23c.4.06,1.11.09,2.12.09.53,0,1-.03,1.42-.09,0-.1,0-.17,0-.21Z"/><path d="m117.23,88.95v-3.01l7.32-11.94c.42-.69.84-1.3,1.33-1.93-.72.03-1.69.06-3.71.06h-4.7v-3.53h13.14v3.13l-7.75,12.24c-.3.48-.57.93-.93,1.42.51-.06,1.9-.06,4.4-.06h4.4v3.62h-13.5Zm25.97,0c0-.69.03-1.87.18-2.65l-.03-.03c-.9,1.78-2.62,3.01-5.09,3.01-3.38,0-4.46-2.17-4.46-4.79v-10.52h3.83v9.58c0,1.57.42,2.5,1.87,2.5,1.96,0,3.47-2.23,3.47-4.85v-7.23h3.86v14.98h-3.62Zm15.79-11.51c-2.77-.57-4.16,1.24-4.16,5.39v6.12h-3.86v-14.98h3.65c0,.75-.09,1.96-.27,3.01h.06c.72-1.9,2.17-3.56,4.76-3.35l-.18,3.8Zm4.9-5.4c-1.33,0-2.38-1.06-2.38-2.35s1.06-2.32,2.38-2.32,2.41,1.02,2.41,2.32-1.08,2.35-2.41,2.35Zm-1.93,16.91v-14.98h3.86v14.98h-3.86Zm13.43.27c-4.16,0-6.75-2.17-6.75-7.26,0-4.67,2.44-8.26,7.75-8.26,1.03,0,2.11.15,3.07.42l-.39,3.35c-.81-.3-1.75-.54-2.71-.54-2.44,0-3.68,1.81-3.68,4.64,0,2.56.99,4.31,3.56,4.31,1.02,0,2.14-.21,2.95-.63l.3,3.29c-1.03.39-2.5.69-4.1.69Zm16.31-.27v-9.58c0-1.57-.42-2.5-1.84-2.5-1.96,0-3.5,2.23-3.5,4.85v7.23h-3.86v-22h3.86v6.42c0,.91-.06,2.17-.27,3.04l.06.03c.88-1.69,2.59-2.8,4.91-2.8,3.37,0,4.46,2.17,4.46,4.79v10.52h-3.83Zm9.79-14.19c-2.44,0-3.03-1.32-3.03-2.85v-4.97h1.77v4.87c0,.9.28,1.47,1.38,1.47,1,0,1.39-.42,1.39-1.57v-4.76h1.75v4.66c0,2.16-1.22,3.16-3.25,3.16Zm4.73-.15v-1.39l2.47-4.13c.12-.2.26-.4.41-.59-.2.01-.46.02-1.21.02h-1.59v-1.59h4.97v1.44l-2.6,4.18c-.09.15-.18.27-.29.43.15-.02.58-.02,1.49-.02h1.45v1.64h-5.09Zm11.3,0v-3.2h-2.81v3.2h-1.77v-7.68h1.77v2.95h2.81v-2.95h1.77v7.68h-1.77Zm-91.68-17.18c-6.42,0-7.87-3.5-7.87-7.38v-13.29h3.92v13.05c0,2.56.84,4.37,4.22,4.37,3.01,0,4.28-1.27,4.28-4.73v-12.69h3.89v12.45c0,5.58-3.07,8.23-8.44,8.23Zm21.82-.33v-9.59c0-1.57-.42-2.5-1.84-2.5-1.96,0-3.5,2.23-3.5,4.85v7.23h-3.86v-14.98h3.65c0,.69-.06,1.87-.21,2.65l.03.03c.9-1.78,2.65-3.01,5.09-3.01,3.38,0,4.46,2.17,4.46,4.79v10.52h-3.83Zm9.94-16.91c-1.33,0-2.38-1.05-2.38-2.35s1.06-2.32,2.38-2.32,2.41,1.02,2.41,2.32-1.08,2.35-2.41,2.35Zm-1.93,16.91v-14.98h3.86v14.98h-3.86Zm15.49,0h-3.92l-5.54-14.98h4.22l2.38,6.75c.36,1.02.73,2.23,1,3.32h.06c.24-1.02.54-2.17.9-3.19l2.41-6.87h4.1l-5.61,14.98Zm19.38-6.87h-9.28c-.03,2.8,1.36,4.16,4.13,4.16,1.48,0,3.07-.33,4.37-.93l.36,2.98c-1.6.63-3.5.96-5.37.96-4.76,0-7.41-2.38-7.41-7.66,0-4.58,2.53-7.96,7.02-7.96s6.3,2.98,6.3,6.69c0,.51-.03,1.11-.12,1.75Zm-6.3-5.61c-1.6,0-2.71,1.18-2.92,2.98h5.51c.06-1.87-.96-2.98-2.59-2.98Zm17.66.96c-2.77-.57-4.16,1.24-4.16,5.4v6.12h-3.86v-14.98h3.65c0,.75-.09,1.96-.27,3.01h.06c.72-1.9,2.17-3.56,4.76-3.35l-.18,3.8Zm5.28,11.82c-1.09,0-2.17-.12-3.14-.27l.09-3.17c.93.24,2.08.45,3.22.45,1.48,0,2.44-.6,2.44-1.6,0-2.65-6.06-1.15-6.06-6.24,0-2.62,2.14-4.79,6.36-4.79.87,0,1.84.12,2.74.27l-.12,3.04c-.84-.24-1.84-.39-2.77-.39-1.51,0-2.23.6-2.23,1.54,0,2.44,6.15,1.36,6.15,6.21,0,2.95-2.59,4.94-6.69,4.94Zm11.9-17.21c-1.33,0-2.38-1.05-2.38-2.35s1.06-2.32,2.38-2.32,2.41,1.02,2.41,2.32-1.08,2.35-2.41,2.35Zm-1.93,16.91v-14.98h3.86v14.98h-3.86Zm13.59.3c-3.31,0-4.37-1.21-4.37-4.7v-7.6h-2.56v-2.98h2.56v-4.61l3.86-1.02v5.64h3.65v2.98h-3.65v6.57c0,1.93.45,2.47,1.78,2.47.63,0,1.33-.09,1.87-.24v3.11c-.96.24-2.08.39-3.14.39Zm13.38,1.08c-1.78,4.67-3.35,6.09-6.78,6.09-.66,0-1.48-.09-2.11-.24l.24-3.32c.69.21,1.33.33,2.05.33,1.27,0,2.11-.57,2.89-2.8l.51-1.45-5.52-14.98h4.28l2.02,5.73c.45,1.3.84,2.77,1.18,4.13h.03c.33-1.36.96-3.35,1.45-4.76l1.78-5.09h4.13l-6.15,16.37Zm18.54-1.08c-4.25,0-6.99-2.2-6.99-7.54,0-4.67,3.11-8.05,7.66-8.05,4.25,0,6.99,2.35,6.99,7.5,0,4.7-3.16,8.08-7.65,8.08Zm.39-12.33c-1.72,0-3.41,1.33-3.41,4.4s1.11,4.64,3.35,4.64c1.9,0,3.35-1.54,3.35-4.58s-1.02-4.46-3.28-4.46Zm19.41-6.81c-.6-.21-1.3-.27-1.87-.27-1.69,0-2.44.87-2.44,2.86v1.27h3.5v2.98h-3.5v12h-3.83v-12h-2.62v-2.98h2.62v-1.21c0-4.07,1.87-6.06,5.97-6.06.81,0,1.66.06,2.44.24l-.27,3.16Z"/><path d="m36.71,76.43c-.87.37-1.03.44-1.21.53-.19.09-.26.18-.22.39,0,.05.04.15.08.23.03.06.03.1-.01.12-.04.02-.07-.02-.11-.1-.13-.3-.27-.67-.34-.85-.06-.14-.23-.49-.32-.7-.04-.09-.04-.13,0-.15.04-.02.07.01.09.07.03.06.05.09.09.16.1.14.21.15.42.07.19-.07.35-.14,1.22-.51l.8-.34c.83-.36,1.11-.68,1.22-1.06.1-.35.01-.62-.07-.82-.11-.25-.32-.53-.65-.66-.45-.18-.98.02-1.57.28l-.72.31c-.87.38-1.04.44-1.21.53-.19.1-.26.18-.22.39,0,.05.04.15.07.22.03.06.03.1,0,.12-.04.02-.07-.02-.1-.1-.12-.29-.26-.66-.27-.67-.03-.07-.2-.42-.3-.65-.04-.08-.04-.13,0-.14.04-.02.07.01.1.08.03.06.05.1.09.16.09.14.21.15.42.07.19-.07.35-.14,1.22-.51l.61-.26c.64-.27,1.34-.5,1.96-.2.53.26.77.65.93,1.02.13.31.35.86.15,1.45-.14.41-.47.81-1.3,1.16l-.84.36Zm-.24-6.39c.47-.12.61-.23.63-.36.01-.11,0-.23-.03-.33-.01-.07-.01-.11.03-.11.05,0,.07.04.09.13.09.4.12.65.15.76.01.06.09.34.16.66.02.08.02.14-.03.15-.04,0-.06-.03-.07-.09-.02-.08-.05-.19-.09-.27-.08-.15-.27-.13-.8-.02l-3.63.74c-.12.03-.21.03-.23-.03-.01-.07.05-.14.14-.27.06-.09.86-1.24,1.55-2.32.32-.51,1.02-1.52,1.1-1.65v-.03s-2.74.66-2.74.66c-.37.09-.48.17-.5.33-.02.1.02.25.03.33.02.07,0,.1-.03.11-.05.01-.07-.06-.09-.15-.07-.32-.12-.61-.14-.74-.02-.07-.08-.3-.15-.6-.02-.08-.02-.14.02-.15.04,0,.06.02.08.1.01.06.02.11.06.18.09.16.23.18.57.11l3.87-.78c.13-.03.19-.02.21.04.01.07-.04.16-.09.24-.28.46-.91,1.42-1.4,2.2-.51.81-1.13,1.66-1.22,1.79v.02s2.56-.63,2.56-.63Zm-3.02-5.59c-.95.06-1.12.07-1.32.1-.21.03-.31.09-.34.23-.01.07-.02.15-.01.23,0,.06,0,.1-.06.1-.04,0-.05-.05-.06-.15-.01-.24-.02-.63-.03-.81,0-.16-.05-.52-.07-.76,0-.08,0-.13.04-.13.05,0,.06.03.07.1,0,.06.01.11.03.19.04.17.15.21.37.21.2,0,.37,0,1.32-.07l1.1-.07c.61-.04,1.1-.07,1.37-.11.17-.03.28-.08.29-.27,0-.09.01-.23,0-.32,0-.07.01-.1.04-.1.04,0,.07.05.07.12.03.41.03.81.04.98,0,.14.05.54.07.79,0,.08-.01.13-.05.13-.03,0-.05-.02-.06-.1,0-.09-.02-.17-.04-.22-.03-.12-.14-.16-.32-.16-.26-.01-.76.02-1.36.05l-1.1.07Zm-1.34-2.81c-.35.12-.43.22-.5.44-.03.09-.04.19-.04.24,0,.06-.02.07-.06.07-.05,0-.05-.07-.05-.17.02-.33.06-.69.08-.9.01-.16.01-.46.03-.77,0-.08.02-.14.07-.14.04,0,.05.04.05.1,0,.1,0,.19.03.25.03.05.07.07.13.07.08,0,.26-.04.49-.11l2.9-.89v-.02c-.67-.31-2.63-1.25-3.03-1.43-.08-.04-.17-.07-.23-.07-.05,0-.1.02-.12.07-.03.07-.04.17-.05.25,0,.06-.01.11-.06.1-.05,0-.06-.06-.05-.18.02-.31.06-.57.06-.65,0-.11,0-.4.02-.59,0-.08.02-.13.07-.13.04,0,.05.04.05.1,0,.06-.01.19.06.31.05.08.15.19.54.38.57.28.9.47,1.64.86.89.46,1.55.8,1.85.95.35.19.45.23.44.32,0,.08-.09.11-.4.21l-3.92,1.33Zm1.77-5.54c-.93-.2-1.1-.24-1.3-.27-.21-.03-.32,0-.41.19-.02.05-.05.15-.07.23-.01.07-.03.1-.08.09-.04,0-.05-.05-.03-.15.04-.17.08-.34.11-.49.04-.16.08-.3.09-.38.04-.2.3-1.41.32-1.53.01-.12.02-.22.02-.27,0-.03,0-.07,0-.1,0-.03.03-.03.06-.02.04,0,.11.06.39.13.06.02.33.09.4.12.03.01.06.03.05.08,0,.04-.04.05-.1.04-.04,0-.15-.03-.23-.01-.12.02-.21.06-.31.36-.03.1-.18.74-.21.86,0,.03,0,.05.05.06l1.55.33s.07,0,.08-.03c.03-.13.18-.84.2-.98.02-.15.02-.24-.03-.31-.04-.05-.07-.08-.06-.12,0-.02.02-.04.06-.03.04,0,.13.05.44.15.12.03.36.1.41.11.05.01.12.03.1.08,0,.04-.04.05-.07.04-.06,0-.14-.02-.23-.02-.13,0-.24.07-.31.29-.04.11-.17.72-.2.86,0,.03.02.04.05.05l.48.1c.21.04.77.17.95.2.42.08.54,0,.67-.62.03-.16.09-.42.05-.59s-.15-.28-.39-.37c-.06-.03-.09-.04-.08-.09.01-.05.06-.04.12-.03.14.03.55.17.66.23.15.08.14.13.09.36-.1.46-.18.79-.25,1.05-.07.26-.12.45-.16.63-.01.07-.04.2-.07.35-.03.14-.05.3-.08.42-.02.08-.04.12-.09.11-.03,0-.04-.04-.03-.11.02-.09.02-.17.02-.23,0-.13-.13-.19-.3-.25-.25-.09-.73-.19-1.3-.31l-1.08-.23Zm1.16-4.5c-.89-.34-1.05-.41-1.24-.47-.2-.06-.31-.05-.43.12-.03.04-.07.14-.11.22-.02.06-.05.09-.09.08-.04-.02-.04-.06,0-.15.12-.31.28-.67.33-.79.08-.2.23-.65.3-.83.14-.37.33-.75.67-.98.17-.12.56-.24.95-.09.43.17.76.5,1.01,1.28.85-.27,1.53-.47,2.02-.67.46-.2.6-.42.65-.5.04-.06.06-.11.08-.16.02-.05.04-.06.07-.05.05.02.04.06.02.13l-.21.55c-.13.33-.21.46-.35.58-.23.2-.59.31-1.17.47-.41.11-.91.22-1.03.27-.05.02-.07.05-.08.09l-.21.5s0,.05.03.07l.08.03c.54.21,1,.39,1.26.45.18.05.32.06.41-.1.05-.08.11-.21.13-.28.02-.05.04-.06.07-.05.04.02.04.06.01.14-.13.34-.32.76-.35.85-.04.11-.17.49-.26.72-.03.08-.06.11-.1.09-.03-.01-.04-.04-.01-.11.03-.09.05-.16.06-.22.02-.13-.1-.21-.26-.29-.23-.12-.69-.3-1.23-.51l-1.03-.4Zm.73-.51c.06.03.09.02.12-.01.09-.11.17-.27.23-.42.09-.23.1-.32.06-.45-.06-.22-.26-.5-.74-.68-.83-.32-1.28.14-1.41.48-.06.15-.09.25-.1.32,0,.05.01.07.06.08l1.77.69Zm3.68-2.6c-.09.07-.12.07-.24,0-.3-.17-.61-.38-.7-.43-.08-.05-.13-.1-.1-.15.03-.05.08-.03.12,0,.07.04.2.08.31.11.47.11.8-.13.99-.47.28-.49.08-.92-.21-1.08-.27-.15-.56-.21-1.17.04l-.34.14c-.81.33-1.31.32-1.75.07-.6-.34-.74-1.08-.31-1.84.2-.35.38-.55.5-.67.04-.04.07-.06.11-.04.07.04.22.15.64.39.12.07.15.11.13.15-.02.04-.06.04-.13,0-.05-.03-.23-.1-.44-.06-.15.02-.4.09-.6.44-.23.4-.13.78.19.97.25.14.51.13,1.11-.13l.2-.09c.87-.38,1.38-.4,1.89-.1.32.18.62.51.66,1.05.02.37-.1.7-.27.99-.18.32-.36.54-.59.71Zm-.14-5.17c-.77-.56-.91-.66-1.08-.77-.18-.11-.3-.13-.41-.03-.06.04-.11.11-.15.17-.04.05-.07.07-.11.04-.03-.02-.01-.07.05-.15.14-.19.39-.5.49-.65.09-.13.29-.44.43-.63.05-.07.09-.1.12-.08.04.03.03.07,0,.12-.04.05-.06.09-.1.16-.07.16-.02.26.15.4.15.13.3.23,1.06.79l.89.65c.49.36.89.65,1.12.79.15.08.26.12.39-.02.06-.06.15-.17.21-.24.04-.06.07-.07.1-.05.04.03.02.08-.02.13-.24.33-.49.64-.59.78-.08.12-.3.45-.45.65-.05.07-.09.09-.12.06-.03-.02-.03-.05.02-.11.05-.08.09-.14.11-.2.05-.12,0-.21-.15-.33-.19-.18-.59-.47-1.08-.83l-.89-.65Zm1.54-4.21l-.62.69c-.24.27-.32.4-.28.57.02.11.06.18.09.23.03.04.03.07,0,.1-.03.03-.06.02-.11-.03-.07-.07-.41-.55-.43-.59-.05-.07-.06-.11-.04-.14.03-.04.12-.04.24-.14.14-.12.31-.28.45-.43l1.7-1.8c.14-.15.22-.26.27-.33.05-.08.08-.13.09-.14.03-.03.06-.01.13.05.1.09.4.4.51.51.04.05.06.08.03.11-.03.04-.07.02-.14-.04l-.05-.04c-.13-.1-.37-.1-.76.3l-.55.56,1.86,1.76c.42.4.78.74.99.9.14.11.27.17.41.05.07-.05.17-.15.24-.21.05-.05.08-.06.1-.04.03.03.01.08-.04.13-.28.3-.57.57-.69.7-.1.1-.36.4-.53.59-.06.06-.1.08-.13.05-.02-.02-.02-.05.03-.11.07-.07.11-.13.14-.18.07-.11,0-.23-.13-.37-.17-.2-.53-.54-.95-.94l-1.86-1.76Zm4.75-.77s-.03.04-.01.07l.29.91c.05.16.12.3.16.36.07.09.16.12.32,0l.07-.06c.06-.05.08-.05.1-.02.03.04,0,.07-.04.12-.16.12-.38.28-.53.4-.05.04-.31.27-.57.48-.06.05-.1.06-.13.03-.02-.03-.01-.05.03-.09.04-.04.11-.09.14-.13.2-.21.16-.45.06-.77l-1.22-4.05c-.05-.19-.07-.27-.02-.3.04-.04.11-.01.25.06.33.18,2.71,1.55,3.61,2.04.54.29.73.25.86.19.08-.04.16-.1.22-.14.04-.03.07-.05.09-.01.03.04,0,.08-.19.23-.18.14-.53.42-.93.73-.09.07-.15.11-.18.08-.02-.03-.01-.05.03-.1.03-.04.03-.11-.05-.15l-1.22-.72s-.05-.01-.08,0l-1.09.87Zm.8-1.04s.02-.04,0-.05l-1.4-.86s-.04-.04-.06-.02c-.01.01,0,.04,0,.07l.51,1.56s.03.03.05.02l.9-.72Zm3.25-.04c-.11.01-.14,0-.21-.12-.17-.3-.34-.63-.39-.72-.04-.08-.06-.15-.02-.18.05-.03.08.02.11.06.04.07.13.17.21.25.35.33.76.29,1.09.09.49-.29.53-.76.36-1.04-.16-.26-.38-.46-1.04-.55l-.36-.05c-.87-.11-1.29-.37-1.55-.8-.35-.59-.11-1.31.64-1.75.35-.21.61-.29.77-.33.05-.02.09-.02.11.02.04.07.11.24.36.66.07.12.08.17.04.2-.04.02-.07,0-.11-.06-.03-.05-.15-.2-.35-.27-.14-.05-.39-.12-.74.08-.4.24-.5.61-.31.93.15.25.38.36,1.03.44l.22.02c.94.1,1.39.34,1.7.85.18.31.29.75.05,1.24-.17.33-.44.56-.72.73-.31.18-.58.29-.87.33Zm32.67-4.54l-.82-.45c-.32-.17-.46-.22-.62-.15-.1.05-.17.1-.2.13-.04.04-.07.05-.1.03-.04-.02-.03-.06,0-.12.05-.09.44-.52.48-.55.06-.06.09-.08.13-.06.04.03.07.11.19.2.15.11.35.24.52.34l2.14,1.25c.17.1.3.16.39.19.09.03.14.05.16.06.04.02.02.06-.02.14-.07.11-.3.48-.38.62-.04.05-.07.08-.1.06-.04-.03-.04-.06,0-.14l.03-.06c.07-.15.01-.38-.46-.68l-.67-.42-1.3,2.21c-.29.5-.54.92-.65,1.17-.07.16-.11.3.04.41.07.05.18.14.26.18.06.04.08.07.06.09-.02.04-.07.03-.13,0-.36-.21-.69-.42-.84-.51-.12-.07-.47-.26-.69-.38-.07-.04-.1-.08-.08-.12.02-.03.05-.03.11,0,.08.05.15.08.21.09.12.04.22-.06.33-.2.16-.21.41-.64.7-1.13l1.3-2.21Zm2.82,3.56c.62-.72.73-.85.86-1.01.13-.17.16-.28.03-.45-.03-.04-.11-.12-.17-.17-.05-.04-.07-.08-.04-.11.03-.03.07-.01.14.05.25.22.54.49.68.61.11.1.42.34.6.49.07.06.1.1.07.13-.03.03-.07.02-.11-.02-.05-.05-.08-.07-.15-.1-.15-.09-.26-.04-.41.12-.14.14-.25.28-.87,1l-.57.66c-.59.69-.7,1.1-.63,1.49.06.36.26.57.43.7.21.18.52.33.88.31.49-.04.87-.45,1.29-.94l.51-.59c.62-.72.73-.86.85-1.01.13-.17.16-.28.03-.45-.03-.04-.11-.12-.16-.16-.05-.04-.07-.08-.04-.11.03-.03.07-.01.14.04.24.21.53.48.53.48.06.05.37.29.55.45.07.06.09.09.06.13s-.07.02-.12-.03c-.05-.04-.08-.06-.15-.1-.15-.09-.26-.04-.41.12-.14.14-.25.28-.87,1l-.44.51c-.45.53-.98,1.04-1.68,1.04-.59,0-.97-.24-1.28-.51-.25-.22-.69-.62-.77-1.23-.05-.43.07-.93.66-1.62l.59-.69Zm4.74,4.47c.74-.6.88-.71,1.02-.84.16-.14.2-.24.11-.43-.02-.05-.08-.13-.14-.2-.04-.05-.06-.09-.02-.12.03-.03.07,0,.13.07.21.26.44.58.52.68.13.17.45.52.57.68.25.31.48.66.51,1.06.02.21-.08.61-.4.87-.36.29-.81.41-1.61.24-.2.87-.36,1.56-.43,2.09-.06.5.06.73.11.81.03.06.06.11.09.15.03.04.03.07,0,.09-.04.03-.08,0-.12-.05l-.37-.46c-.22-.27-.29-.41-.33-.6-.06-.3.02-.67.18-1.24.11-.41.26-.9.28-1.02,0-.05,0-.08-.04-.12l-.33-.43s-.04-.03-.07,0l-.07.06c-.45.36-.84.67-1.02.86-.13.13-.21.24-.11.41.05.08.13.2.17.25.03.04.03.07,0,.09-.03.03-.08,0-.13-.06-.23-.28-.5-.65-.56-.73-.07-.09-.34-.39-.49-.58-.05-.06-.06-.11-.03-.14.02-.02.05-.01.1.05.06.07.12.12.16.16.1.08.23.02.38-.07.22-.14.61-.45,1.06-.81l.86-.69Zm.08.88c-.05.04-.07.07-.05.12.05.13.15.29.25.41.16.2.23.24.36.28.22.06.56.02.96-.3.69-.56.52-1.18.29-1.46-.1-.12-.17-.21-.23-.24-.04-.03-.06-.02-.1.01l-1.48,1.19Zm3.24,3.68c.82-.48.97-.57,1.14-.68.18-.12.24-.23.19-.36-.02-.07-.05-.14-.09-.21-.03-.05-.04-.09,0-.12.03-.02.07.02.12.1.12.21.3.55.4.71.08.13.28.44.4.65.04.07.06.12.02.14-.04.03-.07,0-.1-.05-.03-.05-.06-.09-.11-.15-.11-.13-.23-.12-.42-.02-.18.09-.33.18-1.15.66l-.95.56c-.52.31-.95.56-1.17.72-.14.1-.21.2-.14.37.03.08.09.21.14.29.03.06.03.1,0,.11-.04.02-.08-.01-.11-.07-.21-.36-.39-.7-.48-.85-.07-.12-.29-.45-.42-.67-.04-.07-.05-.12,0-.14.03-.02.06,0,.09.06.05.08.1.14.14.18.08.09.2.07.36,0,.24-.11.67-.36,1.19-.67l.95-.56Zm-.46,3.98c.26-.77.85-1.19,1.41-1.42.39-.16,1.12-.32,1.86.02.55.26,1.01.71,1.37,1.57.15.36.21.58.29.86.06.23.09.44.14.62.02.07,0,.1-.03.12-.05.02-.12.03-.33.1-.2.07-.51.21-.63.24-.09.03-.14.04-.16-.01-.02-.05.02-.08.1-.11.18-.08.35-.24.44-.45.12-.27.09-.79-.13-1.32-.21-.5-.47-.78-.81-.94-.56-.26-1.16-.14-1.72.09-1.38.57-1.62,1.9-1.3,2.67.21.51.4.8.76.92.15.05.35.06.46.04.1-.02.13-.02.15.03.02.04-.02.07-.07.09-.07.03-.6.17-.82.19-.11.01-.15,0-.23-.08-.19-.19-.41-.62-.56-.98-.33-.79-.43-1.53-.19-2.24Zm4.12,4.69c.93-.21,1.1-.25,1.29-.3.2-.06.29-.13.29-.34,0-.05-.02-.16-.04-.24-.02-.07-.01-.11.03-.12.04,0,.07.03.09.12.04.17.07.34.11.5.03.16.05.3.07.39.04.2.32,1.41.35,1.52.04.11.07.21.1.25.01.03.04.06.05.09,0,.03-.02.04-.05.05-.04,0-.12,0-.41.04-.06,0-.33.06-.41.06-.03,0-.07,0-.08-.05s.02-.06.07-.07c.04,0,.15-.04.21-.09.1-.07.16-.15.13-.46-.01-.11-.14-.75-.17-.87,0-.03-.03-.04-.07-.03l-1.54.35s-.07.02-.06.06c.03.13.19.84.23.97.04.14.08.23.16.27.06.03.09.05.1.08,0,.02,0,.05-.04.05-.04,0-.14,0-.46.05-.12.02-.37.06-.41.07-.05.01-.12.03-.13-.03,0-.04.01-.06.04-.07.06-.02.14-.04.21-.07.12-.06.19-.16.16-.39-.01-.12-.14-.73-.18-.87,0-.03-.03-.03-.07-.02l-.48.11c-.21.05-.77.17-.95.21-.42.11-.49.22-.35.85.04.16.09.41.2.56.11.14.25.19.51.17.07,0,.1,0,.11.05.01.05-.04.06-.1.07-.14.03-.57.08-.69.07-.17,0-.18-.06-.23-.29-.1-.46-.17-.8-.22-1.06-.05-.26-.08-.46-.12-.64-.01-.07-.05-.2-.08-.35-.03-.14-.08-.3-.11-.42-.02-.08,0-.13.03-.14.03,0,.05.01.07.09.02.09.05.16.07.21.05.12.19.12.38.1.26-.03.75-.14,1.31-.26l1.07-.24Zm-1.15,5.34c-.49.03-.65.12-.69.24-.03.11-.04.23-.03.33,0,.07,0,.11-.05.11-.05,0-.07-.05-.07-.14-.01-.41,0-.66,0-.78,0-.06-.03-.35-.04-.67,0-.08,0-.14.06-.14.04,0,.05.04.05.1,0,.08.01.19.04.28.06.16.24.18.78.17l3.7-.07c.13,0,.21.01.22.07,0,.07-.08.13-.19.24-.08.08-1.06,1.06-1.94,2.01-.41.44-1.28,1.32-1.38,1.43v.03s2.81-.16,2.81-.16c.38-.02.5-.08.56-.23.03-.1.03-.25.03-.33,0-.08.02-.1.05-.1.05,0,.06.07.06.16.01.32,0,.63,0,.76,0,.07.03.31.04.61,0,.08,0,.14-.05.15-.04,0-.06-.04-.06-.11,0-.06,0-.11-.02-.19-.06-.17-.19-.22-.54-.21l-3.95.07c-.14,0-.19-.02-.2-.07,0-.07.06-.15.13-.22.36-.41,1.15-1.24,1.77-1.91.65-.7,1.41-1.43,1.52-1.54v-.02s-2.62.16-2.62.16Zm-.84,5.77c.06-.09.09-.11.23-.09.34.05.71.13.81.15.09.02.16.05.15.1,0,.06-.06.05-.11.05-.08-.01-.21,0-.32,0-.48.07-.7.41-.75.8-.08.56.26.88.59.93.3.04.6,0,1.08-.46l.26-.25c.63-.6,1.1-.78,1.6-.71.68.1,1.09.74.96,1.6-.06.4-.16.65-.22.81-.02.05-.04.08-.09.08-.08-.01-.26-.06-.74-.13-.14-.02-.18-.05-.18-.09,0-.04.05-.06.12-.05.06,0,.25,0,.43-.1.13-.08.34-.23.4-.63.07-.46-.16-.77-.53-.83-.29-.04-.52.07-.99.53l-.16.16c-.67.67-1.14.87-1.72.79-.36-.05-.77-.25-.99-.74-.15-.34-.16-.69-.11-1.02.05-.36.14-.63.29-.88Zm1.87,5.31c.91.26,1.08.31,1.28.35.21.05.33.01.4-.11.04-.06.06-.14.08-.21.02-.06.04-.09.09-.08.04.01.03.06,0,.16-.06.23-.19.6-.24.78-.04.15-.12.51-.19.74-.02.08-.05.12-.08.11-.05-.01-.05-.05-.03-.11.02-.06.03-.11.03-.19.02-.17-.07-.25-.28-.32-.19-.07-.36-.11-1.27-.37l-1.06-.3c-.58-.16-1.06-.3-1.32-.35-.17-.03-.29-.02-.36.16-.04.08-.09.21-.11.3-.02.07-.05.09-.08.08-.04-.01-.05-.07-.03-.13.11-.4.24-.77.28-.93.04-.14.13-.52.2-.76.02-.08.05-.11.09-.1.03,0,.04.04.02.11-.03.09-.03.16-.04.22,0,.13.08.19.25.26.24.1.72.24,1.3.4l1.06.3Zm-3.68,2.21c.08-.08.12-.08.24-.02.32.14.65.31.74.35.08.04.14.09.12.13-.02.05-.08.04-.12.01-.07-.03-.21-.06-.32-.07-.48-.06-.78.21-.93.57-.22.52.02.92.32,1.05.28.12.58.15,1.16-.17l.32-.17c.77-.42,1.26-.46,1.73-.26.63.27.86,1,.51,1.79-.16.37-.32.59-.43.72-.03.05-.06.07-.1.05-.07-.03-.23-.13-.68-.32-.13-.05-.17-.09-.14-.14.02-.04.06-.04.13-.01.05.02.24.07.44.01.15-.04.39-.13.55-.5.18-.42.05-.79-.3-.94-.26-.11-.52-.07-1.09.25l-.19.11c-.82.47-1.33.55-1.87.31-.33-.14-.67-.44-.77-.97-.06-.37.03-.71.16-1.02.14-.33.3-.57.51-.77Zm-44.68,18.97s-.09,0-.19-.03c-.09-.02-.12-.1-.15-.31l-.32-2.09c-.01-.08-.06-.13-.11-.13-.05,0-.09.04-.12.1l-.92,1.86-.91-1.84c-.05-.09-.08-.12-.13-.12-.05,0-.09.05-.1.11l-.35,2.21c-.01.11-.05.23-.12.24-.05,0-.08,0-.1,0-.04,0-.08.02-.08.06,0,.06.06.07.09.07.11,0,.28-.01.35-.01.06,0,.22.01.37.01.05,0,.11,0,.11-.07,0-.05-.04-.06-.08-.06-.03,0-.06,0-.12-.01-.06-.01-.08-.03-.08-.07,0-.05,0-.1.01-.16l.16-1.25c.12.24.29.6.32.66.04.1.32.61.4.77.06.1.09.18.16.19.07,0,.09-.05.16-.21l.72-1.45.18,1.39s0,.05,0,.07c0,.04,0,.04,0,.04-.03,0-.06.02-.06.06,0,.05.05.07.13.07.14,0,.64.02.73.02.05,0,.11,0,.12-.07,0-.05-.05-.06-.08-.06Zm2.86-2.09c-.39-.4-.99-.39-1.43-.39-.21,0-.46,0-.57,0-.1,0-.32,0-.51,0-.05,0-.1,0-.11.06,0,.05.05.07.09.07.05,0,.11,0,.13,0,.11.04.12.05.13.16,0,.11,0,.2,0,.72v.6c0,.31,0,.58-.02.72-.01.1-.03.14-.08.16-.03,0-.07,0-.12,0s-.08.03-.08.07c0,.05.05.06.1.06.07,0,.16,0,.24,0,.08,0,.16,0,.2,0,.09,0,.21,0,.35.02.14,0,.29.02.42.02.65,0,1.03-.24,1.19-.41.2-.2.39-.53.39-.96,0-.41-.16-.7-.34-.88Zm-.22.98c0,.35-.07.64-.29.82-.21.17-.43.22-.75.22-.27,0-.4-.07-.44-.12-.02-.02-.03-.14-.03-.22,0-.07,0-.33,0-.68v-.43c0-.27,0-.55,0-.66,0-.04,0-.03.03-.04.01-.01.14-.02.21-.02.27,0,.65.03.96.32.15.13.32.4.32.82Zm3.32.55s-.07.04-.07.09c-.01.06-.06.15-.11.21-.13.15-.29.17-.6.17-.46,0-1.06-.37-1.06-1.16,0-.33.06-.65.31-.86.15-.13.34-.18.64-.18s.55.08.66.19c.08.08.12.2.13.3,0,.04,0,.1.06.1.06,0,.07-.06.08-.11,0-.07,0-.26.01-.37,0-.12.02-.16.02-.19,0-.03-.03-.07-.08-.07-.1-.01-.22-.04-.35-.06-.16-.02-.29-.04-.51-.04-.53,0-.87.14-1.13.37-.34.31-.42.71-.42.95,0,.33.09.73.45,1.02.33.27.74.37,1.22.37.23,0,.5-.02.64-.08.06-.02.09-.06.11-.12.04-.12.08-.41.08-.46,0-.04-.02-.08-.07-.09Zm2.81,0s-.07.04-.07.09c0,.06-.06.15-.11.21-.13.15-.29.17-.6.17-.46,0-1.06-.37-1.06-1.16,0-.33.06-.65.31-.86.15-.13.34-.18.64-.18s.55.08.66.19c.08.08.12.2.13.3,0,.04,0,.1.06.1.06,0,.07-.06.08-.11,0-.07,0-.26.01-.37,0-.12.02-.16.02-.19,0-.03-.03-.07-.08-.07-.1-.01-.22-.04-.35-.06-.16-.02-.29-.04-.51-.04-.53,0-.87.14-1.13.37-.34.31-.42.71-.42.95,0,.33.09.73.45,1.02.33.27.74.37,1.22.37.23,0,.5-.02.64-.08.06-.02.09-.06.11-.12.04-.12.08-.41.08-.46,0-.04-.02-.08-.07-.09Zm2.81,0s-.07.04-.07.09c0,.06-.06.15-.11.21-.13.15-.29.17-.6.17-.46,0-1.06-.37-1.06-1.16,0-.33.06-.65.31-.86.15-.13.34-.18.64-.18s.55.08.66.19c.08.08.12.2.13.3,0,.04,0,.1.06.1.06,0,.07-.06.08-.11,0-.07,0-.26.01-.37,0-.12.02-.16.02-.19,0-.03-.03-.07-.08-.07-.1-.01-.22-.04-.35-.06-.16-.02-.29-.04-.51-.04-.53,0-.87.14-1.13.37-.34.31-.42.71-.42.95,0,.33.09.73.45,1.02.33.27.74.37,1.22.37.23,0,.5-.02.64-.08.06-.02.09-.06.11-.12.04-.12.08-.41.08-.46,0-.04-.02-.08-.07-.09Zm13.54.57s-.08,0-.13-.02c-.07-.02-.12-.05-.18-.13-.08-.1-.63-.97-.77-1.18l.57-.78c.11-.15.17-.23.24-.25.05-.01.09-.02.12-.02.04,0,.08-.02.08-.07,0-.05-.05-.06-.09-.06-.13,0-.28,0-.34,0s-.23,0-.37,0c-.05,0-.1,0-.1.06,0,.05.04.07.07.07s.07,0,.1,0c.03,0,.04.02.04.03,0,.02-.01.07-.04.11-.05.09-.33.49-.45.67-.13-.22-.27-.44-.41-.7-.02-.03-.03-.08-.03-.08,0,0,0-.01.03-.02.02,0,.06,0,.08,0,.04,0,.08-.02.08-.07,0-.05-.06-.06-.1-.06-.13,0-.35,0-.39,0-.17,0-.45,0-.53,0-.04,0-.09,0-.1.06,0,.04.03.07.06.07.03,0,.09,0,.14.02.12.04.18.1.27.24l.61.95-.67.91c-.12.16-.17.21-.26.24-.05.01-.1.01-.12.01-.04,0-.08.03-.08.07,0,.04.04.06.08.06h.06c.06,0,.23-.01.29-.01.09,0,.32.01.34.01h.06s.1,0,.1-.06c0-.04-.04-.07-.07-.07-.03,0-.05,0-.08,0-.02,0-.04-.01-.04-.03,0,0,0,0,0,0,0-.02.02-.07.05-.12l.49-.76c.15.25.34.56.53.87,0,.01,0,.02,0,.02,0,0,0,0,0,0-.04,0-.07.03-.07.07.01.06.06.06.15.06.29,0,.57,0,.65,0h.1s.09-.01.1-.06c0-.04-.04-.07-.07-.07Zm2.97,0s-.08,0-.13-.02c-.07-.02-.12-.05-.18-.13-.08-.1-.63-.97-.77-1.18l.57-.78c.11-.15.17-.23.24-.25.05-.01.09-.02.12-.02.04,0,.08-.02.08-.07,0-.05-.05-.06-.09-.06-.13,0-.28,0-.34,0s-.23,0-.37,0c-.05,0-.1,0-.1.06,0,.05.04.07.07.07s.07,0,.1,0c.03,0,.04.02.04.03,0,.02,0,.07-.04.11-.05.09-.33.49-.45.67-.13-.22-.27-.44-.41-.7-.02-.03-.03-.08-.03-.08,0,0,0-.01.03-.02.03,0,.06,0,.08,0,.04,0,.08-.02.08-.07,0-.05-.05-.06-.1-.06-.13,0-.35,0-.39,0-.17,0-.45,0-.53,0-.04,0-.09,0-.1.06,0,.04.03.07.06.07.03,0,.09,0,.14.02.12.04.18.1.27.24l.61.95-.67.91c-.12.16-.17.21-.26.24-.05.01-.1.01-.12.01-.04,0-.08.03-.08.07,0,.04.04.06.08.06h.06c.06,0,.23-.01.29-.01.09,0,.32.01.34.01h.06s.1,0,.1-.06c0-.04-.04-.07-.07-.07-.03,0-.05,0-.08,0s-.04-.01-.04-.03c0,0,0,0,0,0,0-.02.02-.07.05-.12l.49-.76c.15.25.34.56.53.87,0,.01,0,.02,0,.02,0,0,0,0,0,0-.04,0-.07.03-.07.07.01.06.06.06.15.06.29,0,.57,0,.65,0h.1s.09-.01.1-.06c0-.04-.04-.07-.07-.07Zm2.97,0s-.08,0-.13-.02c-.07-.02-.12-.05-.18-.13-.08-.1-.63-.97-.77-1.18l.57-.78c.11-.15.17-.23.24-.25.05-.01.09-.02.12-.02.04,0,.08-.02.08-.07,0-.05-.05-.06-.09-.06-.13,0-.28,0-.34,0s-.23,0-.37,0c-.05,0-.1,0-.1.06,0,.05.04.07.07.07.03,0,.07,0,.1,0,.03,0,.04.02.04.03,0,.02-.01.07-.04.11-.05.09-.33.49-.45.67-.13-.22-.27-.44-.41-.7-.02-.03-.03-.08-.03-.08,0,0,0-.01.03-.02.03,0,.06,0,.08,0,.04,0,.08-.02.08-.07,0-.05-.06-.06-.1-.06-.13,0-.35,0-.39,0-.17,0-.45,0-.53,0-.04,0-.09,0-.1.06,0,.04.03.07.06.07.03,0,.09,0,.14.02.12.04.18.1.27.24l.61.95-.67.91c-.12.16-.17.21-.26.24-.05.01-.1.01-.12.01-.04,0-.08.03-.08.07,0,.04.04.06.08.06h.06c.06,0,.23-.01.29-.01.09,0,.32.01.34.01h.06s.1,0,.1-.06c0-.04-.04-.07-.07-.07-.03,0-.05,0-.08,0s-.04-.01-.04-.03h0s.02-.08.05-.12l.49-.76c.15.25.34.56.53.87,0,.01,0,.02,0,.02,0,0,0,0,0,0-.04,0-.07.03-.07.07.01.06.06.06.15.06.29,0,.57,0,.65,0h.1s.09-.01.1-.06c0-.04-.04-.07-.07-.07Zm1.83,0s-.13,0-.17-.01c-.09-.02-.1-.04-.12-.13-.02-.14-.02-.41-.02-.74v-.6c0-.51,0-.61,0-.72.01-.12.02-.14.11-.16.04,0,.07-.01.1-.01.04,0,.08-.02.08-.07,0-.06-.06-.06-.1-.06-.14,0-.36,0-.45,0-.1,0-.34,0-.47,0-.05,0-.1,0-.11.06,0,.05.05.07.08.07.04,0,.08,0,.12.01.07.02.09.04.1.15,0,.11,0,.2,0,.72v.6c0,.32,0,.6-.02.73-.01.1-.02.12-.08.14-.03,0-.07,0-.12,0s-.08.03-.08.07c0,.05.05.06.1.06.14,0,.38-.01.46-.01.09,0,.33.01.57.01.04,0,.09-.01.1-.06,0-.04-.04-.07-.08-.07Zm2.13,0s-.13,0-.17-.01c-.09-.02-.1-.04-.12-.13-.02-.14-.02-.41-.02-.74v-.6c0-.51,0-.61,0-.72.01-.12.02-.14.11-.16.04,0,.07-.01.1-.01.04,0,.08-.02.08-.07,0-.06-.06-.06-.1-.06-.14,0-.36,0-.45,0-.1,0-.34,0-.47,0-.05,0-.1,0-.11.06,0,.05.05.07.08.07.04,0,.08,0,.12.01.07.02.09.04.1.15,0,.11,0,.2,0,.72v.6c0,.32,0,.6-.02.73-.01.1-.02.12-.08.14-.03,0-.07,0-.12,0s-.08.03-.08.07c0,.05.05.06.1.06.14,0,.38-.01.46-.01.09,0,.33.01.57.01.04,0,.09-.01.1-.06,0-.04-.04-.07-.08-.07Zm2.13,0c-.05,0-.13,0-.17-.01-.09-.02-.1-.04-.12-.13-.02-.14-.02-.41-.02-.74v-.6c0-.51,0-.61,0-.72.01-.12.02-.14.11-.16.04,0,.06-.01.1-.01s.08-.02.08-.07c0-.06-.06-.06-.1-.06-.14,0-.36,0-.45,0-.1,0-.34,0-.47,0-.05,0-.1,0-.11.06,0,.05.05.07.08.07.04,0,.08,0,.12.01.07.02.09.04.1.15,0,.11,0,.2,0,.72v.6c0,.32,0,.6-.02.73-.02.1-.03.12-.08.14-.03,0-.07,0-.12,0s-.08.03-.08.07c0,.05.05.06.1.06.14,0,.38-.01.46-.01.09,0,.33.01.57.01.04,0,.09-.01.1-.06,0-.04-.04-.07-.08-.07Zm-21.06-16.39v-1.99c0-.37-.3-.67-.67-.67s-.67.3-.67.67v1.99h1.35Zm3.64,0v-1.99c0-.37-.3-.67-.67-.67s-.67.3-.67.67v1.99h1.35Zm-2.49-39.97c-.39,0-.71.32-.71.71s.32.71.71.71.71-.32.71-.71-.32-.71-.71-.71Zm-.36,19.7h.71v-1.53h-.71v1.53h0Zm-6.76,38.62c-.39,0-.71.32-.71.71s.32.71.71.71.71-.32.71-.71-.32-.71-.71-.71Zm-.43-38.59v-2.25c0-.53-.26-.89-.65-1.06-.39.17-.65.54-.65,1.06v2.25h1.3Zm0-7.23v-1.45c0-.53-.26-.89-.65-1.06-.39.17-.65.54-.65,1.06v1.45h1.3Zm-.3,15.04v-1.88c0-.19-.16-.35-.35-.35s-.35.16-.35.35v1.88h.7Zm0,5.67v-1.88c0-.19-.16-.35-.35-.35s-.35.16-.35.35v1.88h.7Zm.21,6.34v-1.67c0-.31-.25-.57-.57-.57s-.57.25-.57.57v1.67h1.13Zm-.55-47.35c-.39,0-.71.32-.71.71s.32.71.71.71.71-.32.71-.71-.32-.71-.71-.71Zm17.03,27.53v-2.25c0-.53-.26-.89-.65-1.06-.39.17-.65.54-.65,1.06v2.25h1.3Zm0-7.23v-1.45c0-.53-.26-.89-.65-1.06-.39.17-.65.54-.65,1.06v1.45h1.3Zm-.3,15.04v-1.88c0-.19-.16-.35-.35-.35s-.35.16-.35.35v1.88h.7Zm0,5.67v-1.88c0-.19-.16-.35-.35-.35s-.35.16-.35.35v1.88h.7Zm.21,6.34v-1.67c0-.31-.25-.57-.57-.57s-.57.25-.57.57v1.67h1.13Zm-.55-47.35c-.39,0-.71.32-.71.71s.32.71.71.71.71-.32.71-.71-.32-.71-.71-.71Zm116.89,21.07c0,.51-.03,1.11-.12,1.75h-9.28c-.03,2.8,1.36,4.16,4.13,4.16,1.48,0,3.07-.33,4.37-.93l.36,2.98c-1.6.63-3.5.96-5.36.96-4.76,0-7.41-2.38-7.41-7.66,0-4.58,2.53-7.96,7.02-7.96m-.12,2.83c-1.6,0-2.71,1.18-2.92,2.98h5.52c.06-1.87-.96-2.98-2.59-2.98Zm34.84-4.43c-1.33,0-2.38-1.06-2.38-2.35s1.06-2.32,2.38-2.32,2.41,1.02,2.41,2.32-1.08,2.35-2.41,2.35Zm-1.93,16.91v-14.98h3.86v14.98h-3.86Zm13.62.3c-3.32,0-4.37-1.21-4.37-4.7v-7.6h-2.56v-2.98h2.56v-4.61l3.86-1.02v5.64h3.65v2.98h-3.65v6.57c0,1.93.45,2.47,1.78,2.47.63,0,1.33-.09,1.87-.24v3.1c-.97.24-2.08.39-3.13.39Zm-205.48,4.6c0-22.25,18.04-40.29,40.29-40.29h0c22.25,0,40.29,18.04,40.29,40.29h0c0,22.25-18.04,40.29-40.29,40.29h0c-22.25,0-40.29-18.04-40.29-40.29h0Zm12.51-27.79c-7.11,7.11-11.51,16.93-11.51,27.79h0c0,10.85,4.4,20.68,11.51,27.79h0c7.11,7.11,16.93,11.51,27.79,11.51h0c10.85,0,20.68-4.4,27.79-11.51h0c7.11-7.11,11.51-16.93,11.51-27.79h0c0-10.85-4.4-20.68-11.51-27.79h0c-7.11-7.11-16.93-11.51-27.79-11.51h0c-10.85,0-20.67,4.4-27.79,11.51h0Zm28.4,53.11h.32v-.57h-.77v1.26h.45v-.69Zm-.61-63c-20.8,0-37.66,16.86-37.66,37.66s16.86,37.66,37.66,37.66,37.66-16.86,37.66-37.66c0-20.8-16.86-37.66-37.66-37.66Zm-4.17,69.62h-1.71v.57h1.71v4.23c-8.55-.96-16.22-4.83-21.99-10.6-.83-.83-1.62-1.7-2.36-2.6.15-.92.95-1.62,1.91-1.62,1.07,0,1.93.87,1.93,1.93v1.86h2.46s0-.01,0-.01v-1.85c0-1.07.87-1.93,1.93-1.93s1.93.87,1.93,1.93v1.86h2.45v-1.86c0-1.07.87-1.93,1.93-1.93s1.93.87,1.93,1.93v1.86h2.45v-1.86c0-1.07.87-1.93,1.93-1.93s1.93.87,1.93,1.93v1.86h1.54v6.22Zm7.02,4.93c-.94.07-1.89.11-2.85.11s-1.91-.04-2.85-.11l-.7-4.36h.81c-.2-.48-.55-1.31-.68-1.65-.22-.55-.06-.91.31-1.05.35-.14.75.06.88.52l.35,1.32h.51v.85s0,0,0,0v.17h-1.22v.57h1.78v-.74h2.16v-.85s.52,0,.52,0l.36-1.32c.13-.47.53-.66.88-.52.37.14.53.5.31,1.05-.06.15-.15.39-.26.66l-.48,1.16h-1.3v.57h1.68l.31-.74h.18l-.7,4.36Zm-4.02-12.46h2.34c.09.22.31.76.45,1.07.1.22.22.45.07.7-.18.29-.41.25-.57.23,0,0-.02,0-.03,0-.16.45-.59.77-1.09.77s-.93-.32-1.09-.77c0,0-.02,0-.03,0-.16.01-.39.05-.57-.23-.15-.24-.03-.48.07-.7.14-.32.36-.86.45-1.07Zm-.35-2.43l.75,1.07.77-1.45.77,1.45.75-1.07-.3,1.86h-2.44l-.3-1.86Zm.9,5.26c.18.49.64.84,1.19.84.6,0,1.1-.41,1.23-.97.37.02.74.13,1.11.43.35.3.49.81.54,1.06h-6.88c.05-.25.19-.76.54-1.06.75-.63,1.52-.43,2.27-.31Zm2.84,1.93c-.26.98-1.15,1.7-2.21,1.7s-1.95-.72-2.21-1.7h4.42Zm23.94-3.03c-5.77,5.77-13.44,9.64-21.98,10.6v-4.23h1.56c2.9,0,4.99-.24,4.99-.24,0,0-2.16-.33-4.99-.33h-1.56v-6.22h1.87v-1.86c0-1.07.87-1.93,1.93-1.93s1.93.87,1.93,1.93v1.86h2.45s0-.01,0-.01v-1.85c0-1.07.87-1.93,1.93-1.93s1.93.87,1.93,1.93v1.86h2.46v-1.86c0-1.07.87-1.93,1.93-1.93s1.93.87,1.93,1.93v1.86h2.45v-1.86c0-1.07.87-1.93,1.93-1.93.85,0,1.57.55,1.83,1.31-.82,1.01-1.69,1.99-2.62,2.91Zm3.03-3.43c-.43-.91-1.35-1.53-2.42-1.53-1.48,0-2.68,1.2-2.68,2.68v.86h-.97v-.86c0-1.48-1.2-2.68-2.68-2.68s-2.68,1.2-2.68,2.68v.86h-.97v-.86c0-1.48-1.2-2.68-2.68-2.68s-2.68,1.2-2.68,2.68v.86h-.97v-.86c0-1.48-1.2-2.68-2.68-2.68s-2.68,1.2-2.68,2.68v.86h-1c-.3-2-2.03-3.54-4.12-3.54s-3.81,1.54-4.12,3.54h-1.03v-.86c0-1.48-1.2-2.68-2.68-2.68s-2.68,1.2-2.68,2.68v.86h-.97v-.86c0-1.48-1.2-2.68-2.68-2.68s-2.68,1.2-2.68,2.68v.86h-.97v-.86c0-1.48-1.2-2.68-2.68-2.68s-2.68,1.2-2.68,2.68v.86h-.97v-.86c0-1.48-1.2-2.68-2.68-2.68-1.06,0-1.97.62-2.41,1.51-.65-.84-1.27-1.71-1.85-2.6h62.1c-.58.9-1.21,1.78-1.86,2.62Zm2.49-3.61h-63.34c-.18-.3-.36-.61-.54-.92h64.42c-.18.31-.35.62-.54.92Zm-38.05-47.54v.31c0,.06-.03.16-.06.24-.05.14-.19.37-.36.64-.07.11-.18.29-.31.55-.17-.26-.31-.43-.41-.53-.11-.12-.26-.27-.38-.41-.26-.31-.28-.5-.28-.5h0s0,.19-.27.5c-.12.14-.27.29-.38.41-.1.11-.25.28-.42.54-.13-.27-.25-.46-.32-.57-.18-.28-.31-.5-.36-.64-.05-.13-.07-.29-.07-.31v-.24h3.63Zm-3.62-.57c.03-.47.15-1.35.61-1.95.34-.47.68-.74.93-.9.11-.07.21-.12.27-.15.07.03.16.08.27.15.25.16.59.44.93.9.45.6.58,1.48.61,1.95h-3.62Zm3.76,2.07c.1.14.21.35.33.6.16.39.2.77.21,1.05v4.17h-1.07c0-.92,0-2.94,0-4.17,0-.29.05-.68.21-1.06.13-.29.24-.46.33-.6Zm-1.13,1.68v4.14h-1.63c0-1.15,0-4.14,0-4.14.01-.27.03-.65.23-1.03.21-.41.59-.65.59-.65h0s.37.24.57.65c.21.41.22.76.24,1.03Zm-2.4-1.09c.15.37.18.78.18,1.06v4.17s-1.06,0-1.06,0v-4.17c0-.28.04-.66.19-1.05.12-.25.23-.46.33-.6.12.18.24.35.35.6Zm4.88,5.91v1.35h-6.59v-1.35h6.59Zm0,1.92v5.25h-1.6v-2.36c0-.78-.29-1.45-.77-1.9-.26-.25-.57-.43-.91-.55-.02,0-.02,0-.02,0,0,0,0,0-.03,0-.34.12-.65.3-.91.55-.48.45-.77,1.12-.77,1.9v2.36h-1.6v-5.25h6.59Zm-2.16,2.89v2.36h-2.26v-2.36c0-.91.46-1.55,1.13-1.84.67.3,1.12.93,1.13,1.84Zm2.16,2.93v6.68h-1.47v-3.34c0-.78-.29-1.46-.79-1.93-.26-.25-.58-.44-.92-.56-.02,0-.12-.04-.12-.04,0,0-.1.03-.11.04-.35.12-.66.31-.93.56-.49.47-.79,1.15-.79,1.93v3.34h-1.47v-6.68h6.59Zm-2.03,3.35v3.33h-2.52v-3.34c0-.64.24-1.16.61-1.52.19-.18.41-.31.65-.4h0c.25.1.46.23.65.4.38.36.61.88.61,1.52h0Zm2.03,3.9v7.95h-6.59v-7.95h6.59Zm0,8.52v5.19h-6.59v-5.19h6.59Zm0,5.76v8.78h-6.59v-8.78h6.59Zm5.8-21.47v2.37l-.91-.91-.9.9v-2.37h1.81Zm-1.79-.68l.66-2.84.27-4.74.16,4.74.66,2.84h-1.76Zm.88,3.11l4.2,4.2h-8.4l4.2-4.2Zm4.2,4.77v3.21h-8.42v-3.21h8.42Zm0,4.21v3.75h-2.63v-.94c0-.86-.7-1.57-1.57-1.57s-1.57.7-1.57,1.57v.94h-2.66v-3.75h8.42Zm-5.77,4.31v3.34h3.13v-3.34h2.63v5.19h-8.42v-5.19h2.66Zm5.77,5.76v8.78h-8.42v-8.78h8.42Zm5.79-37.28v.31c0,.06-.03.16-.06.24-.05.14-.19.37-.36.64-.07.11-.18.29-.31.55-.17-.26-.31-.43-.41-.53-.11-.12-.26-.27-.38-.41-.26-.31-.28-.5-.28-.5h0s0,.19-.27.5c-.12.14-.27.29-.38.41-.1.11-.25.28-.42.54-.13-.27-.25-.46-.32-.57-.18-.28-.31-.5-.36-.64-.05-.14-.07-.3-.07-.31v-.24h3.63Zm-3.62-.57c.03-.47.15-1.35.61-1.95.34-.47.68-.74.93-.9.11-.07.21-.12.27-.15.07.03.16.08.27.15.25.16.59.44.93.9.45.6.58,1.48.61,1.95h-3.62Zm3.76,2.07c.1.14.21.35.32.6.16.39.2.77.21,1.05v4.17h-1.07v-4.17c0-.29.06-.68.21-1.06.13-.29.23-.46.33-.6Zm-1.13,1.68v4.14h-1.63c0-1.15,0-4.14,0-4.14.01-.27.03-.65.23-1.03.21-.41.59-.65.59-.65h0s.37.24.57.65c.21.41.22.76.24,1.03Zm-2.4-1.09c.15.37.18.78.18,1.06v4.17s-1.06,0-1.06,0v-4.17c0-.28.04-.66.2-1.05.12-.25.23-.46.32-.6.12.18.24.35.35.6Zm4.88,5.91v1.35h-6.59v-1.35h6.59Zm0,1.92v5.25h-1.59v-2.36c0-.78-.29-1.45-.77-1.9-.26-.25-.57-.43-.91-.55-.02,0-.02,0-.02,0,0,0,0,0-.03,0-.34.12-.65.3-.91.55-.48.45-.77,1.12-.77,1.9v2.36h-1.6v-5.25h6.59Zm-2.16,2.89v2.36h-2.26v-2.36c0-.91.46-1.55,1.13-1.84.67.3,1.12.93,1.13,1.84Zm2.16,2.93v6.68h-1.47v-3.34c0-.78-.29-1.46-.79-1.93-.26-.25-.58-.44-.92-.56-.02,0-.12-.04-.12-.04,0,0-.1.03-.11.04-.35.12-.66.31-.93.56-.49.47-.79,1.15-.79,1.93v3.34h-1.47v-6.68h6.59Zm-2.03,3.35v3.33h-2.52v-3.34c0-.64.24-1.16.61-1.52.19-.18.4-.31.65-.4h0c.25.1.46.23.65.4.37.36.61.88.61,1.52h0Zm2.03,3.9v7.95h-6.59v-7.95h6.59Zm0,8.52v5.19h-6.59v-5.19h6.59Zm0,5.76v8.78h-6.59v-8.78h6.59Zm1.01,8.78v-38.72h-.83v-4.27c0-.53-.08-.87-.32-1.41-.06-.14-.15-.29-.24-.44v-1.54s0-1.21-.5-2.12c-.54-.99-1.6-1.54-2.11-1.76-.12-.06-.2-.08-.21-.08l-.09-.03-.11.03c-.05.01-.89.28-1.68,1.36-.72.99-.74,2.26-.75,2.61,0,.06,0,.09,0,.09v1.42c-.1.14-.23.35-.38.67-.22.54-.24,1.04-.24,1.35v4.12h-.84v14.14l-2.29-2.29v-4.04l-.78-2.6-1.14-8.93h0s-.84,8.56-.84,8.56l-.78,2.98v3.74l-2.27,2.27v-13.82h-.83v-4.27c0-.53-.08-.87-.32-1.41-.06-.14-.15-.29-.24-.44v-1.54s0-1.21-.5-2.12c-.54-.99-1.6-1.54-2.11-1.76-.12-.06-.2-.08-.21-.08l-.09-.03-.11.03c-.05.01-.89.28-1.68,1.36-.72.99-.74,2.26-.75,2.61,0,.06,0,.09,0,.09v1.42c-.09.14-.23.35-.38.67-.22.54-.24,1.04-.24,1.35v4.12h-.84v38.72h-20.35c-2.85-5.24-4.47-11.24-4.47-17.63,0-10.22,4.14-19.46,10.83-26.16,6.7-6.69,15.94-10.83,26.16-10.83s19.46,4.14,26.16,10.83c6.69,6.7,10.83,15.94,10.83,26.16,0,6.38-1.62,12.39-4.47,17.63h-20.03Z"/></svg>